<?xml version="1.0" encoding="utf-8"?>
<!-- Generator: Adobe Illustrator 28.3.0, SVG Export Plug-In . SVG Version: 6.00 Build 0)  -->
<svg version="1.1" id="Camada_1" xmlns="http://www.w3.org/2000/svg" xmlns:xlink="http://www.w3.org/1999/xlink" x="0px" y="0px"
	 viewBox="0 0 595.3 641.9" style="enable-background:new 0 0 595.3 641.9;" xml:space="preserve">
<style type="text/css">
	.st0{fill:#D90D2B;}
	.st1{fill:#FFFFFF;}
</style>
<g>
	<path class="st0" d="M548.4,586H44.7c-23.8,0-43.1-19.3-43.1-43.1V124.3c0-23.8,19.3-43.1,43.1-43.1h503.6
		c23.8,0,43.1,19.3,43.1,43.1v418.6C591.4,566.7,572.1,586,548.4,586z"/>
	<g>
		<g>
			<g>
				<path class="st1" d="M178.2,175.5h50.7l156.5,305.1h-64.2L203.6,234.4L86.1,480.6H21.9L178.2,175.5z M93.9,373h223.2v40.8H93.9
					V373z"/>
			</g>
		</g>
		<g>
			<g>
				<path class="st1" d="M322.1,177.8h49.2v303.4h-49.2V177.8z M355.5,440.6h79.4c25.9,0,45.9-5.8,60.2-17.5
					c14.3-11.6,21.3-27.9,21.3-49.1v-89.3c0-21.2-7.1-37.5-21.3-49.1c-14.3-11.6-34.3-17.5-60.2-17.5h-79.4v-40.5h78
					c28.2,0,52.3,4.2,72.1,12.7c20,8.5,35.2,20.9,45.7,37.2c10.5,16.3,15.8,35.9,15.8,58.9v85.9c0,22.9-5.3,42.6-15.8,58.9
					c-10.5,16.3-25.7,28.7-45.8,37.2c-20,8.5-44.1,12.7-72.3,12.7h-77.7L355.5,440.6L355.5,440.6z"/>
			</g>
		</g>
	</g>
</g>
</svg>
