<?xml version="1.0" encoding="utf-8" ?><svg xmlns="http://www.w3.org/2000/svg" xmlns:xlink="http://www.w3.org/1999/xlink" width="3368" height="2072" viewBox="0 0 3368 2072"><path d="M0 0L3368 0L3368 2072L0 2072L0 0Z"/><path fill="#FDCD03" d="M1830.03 144.41C1792.8 137.785 1748.1 135.708 1709.38 132.864C1676.19 130.426 1641.79 131.668 1608.34 132.007C1551.31 132.318 1494.33 134.265 1437.6 137.842C1419.61 139.07 1398.05 143.294 1382 144.582C1351.1 147.065 1322.94 150.714 1292.85 154.459C1270.24 157.272 1205.04 167.734 1184.74 165.85L1183.85 164.674C1206.49 148.833 1389.73 125.588 1433.27 123.316C1548.28 117.315 1670.39 103.711 1786.27 105.392C1844.62 106.239 1913.03 100.317 1967.02 114.717C2040.9 127.223 2179.25 262.771 2233.6 301.416C2239.67 305.729 2251.19 315.923 2259.04 318.381C2275.23 323.446 2326.38 285.763 2359 321.876C2386.52 352.354 2346.86 389.327 2354.63 413.115C2358.19 424.027 2379.98 444.048 2391.13 453.404C2405.5 465.463 2433.69 471.54 2453.98 478.975C2479.18 488.215 2518.93 502.744 2541.26 513.894C2559.96 523.227 2579.47 532.366 2597.33 542.289C2609.6 549.112 2620.78 556.626 2632.62 563.72C2644.81 571.015 2657.51 577.74 2668.73 585.649C2719.42 621.391 2763.68 668.94 2788.73 713.784C2800.55 734.935 2808.27 756.545 2815.76 778.395C2820.19 791.301 2825.41 804.43 2828.09 817.513C2832.62 839.664 2833.53 862.638 2834.37 884.975C2835.19 906.752 2838.55 962.725 2831.1 981.376C2831.01 981.617 2830.78 981.831 2830.61 982.058C2829.29 1007.15 2820.88 1034.08 2809.45 1058.06C2806.69 1063.85 2806.53 1070.38 2802.2 1075.92L2800.01 1075.56C2796.3 1066.46 2800.75 1050.5 2803.4 1041.2C2808.58 1023.07 2807.16 1005.25 2809.4 987.105C2810.94 967.532 2810.47 945.467 2808.31 925.846C2807.73 920.617 2804.01 913.09 2802.75 907.49C2792.08 915.909 2786.07 926.15 2775 934.97C2729.54 971.188 2674.24 950.712 2627.78 928.872C2616.43 923.538 2586.13 902.06 2575.86 901.81C2560.99 907.971 2545.65 931.08 2534.52 941.416C2504.13 969.628 2457.24 997.668 2407.26 1012.19C2361.93 1024.69 2303.68 1019.84 2254.63 1021.6C2230.39 1022.66 2204.35 1021.96 2180.55 1022.14C2159.78 1022.3 2077.99 1016.48 2066.8 1024.86C2036.65 1047.43 2040.01 1088.53 2015.1 1112.25C2019.6 1114.49 2024.43 1116.77 2028.51 1119.26C2052.04 1124.76 2117.7 1116.64 2135.53 1123.9C2138.38 1129.11 2130.11 1147.12 2127.69 1153.41C2124.25 1172.36 2117.16 1180.99 2110.69 1197.43C2099.8 1225.07 2101.69 1233.64 2081.62 1259C2045.36 1257.95 2015.26 1260.91 1979.69 1261.25C1882.47 1262.19 1784.97 1261.35 1687.82 1262.72C1671.45 1262.95 1659.74 1264.1 1648.7 1255.55C1645.06 1241.27 1690.46 1145.11 1700.82 1125.49C1732.77 1118.2 1774.66 1128.37 1802.88 1116.83C1809.18 1110.77 1811.56 1094.47 1814.94 1088.42C1826.06 1068.47 1829.14 1048.54 1836.59 1028.6C1860.09 965.77 1885.77 903.322 1906.96 840.186C1908.91 834.384 1913.02 820.528 1910.97 814.907C1896.65 804.692 1847.84 807.792 1829.52 813.025C1824.81 812.137 1817.89 811.243 1813.99 809.474C1810.74 808.004 1808.87 804.924 1808.53 802.505C1806.96 791.292 1820.76 756.386 1824.69 742.918C1829.68 725.83 1832.82 708.316 1839.54 691.457C1841.18 687.365 1844.46 677.153 1849.91 674.562C1864.41 667.674 2408.98 671.562 2478.52 671.709C2493.95 641.885 2520.69 616.413 2567.25 601.553C2568.14 599.815 2568.01 599.868 2568.36 598.049C2561.62 593.969 2555.89 588.807 2549.25 584.291C2527.89 568.946 2498.93 563.955 2471.42 554.735C2416.87 536.45 2355.23 527.023 2296.94 513.966C2256.5 504.906 2205.7 503.492 2163.26 498.846C2147.4 497.109 2133.44 494.788 2117.93 492.182C2039.63 486.193 1960.86 484.65 1882.79 476.883C1870.28 475.916 1857.31 475.94 1844.81 475.172C1733.05 468.3 1620.64 468.253 1508.46 467.893C1486.06 467.822 1463.82 465.996 1441.3 465.699C1492.42 457.981 1547.95 455.455 1600.18 451.968C1615.22 450.963 1632.11 447.763 1647.25 446.475C1672.71 444.309 1703.34 443.872 1728.27 441.594C1781.3 436.749 1832.58 431.685 1886.44 431.072C1898.89 430.931 1916.8 430.042 1928.81 431.337C1937.01 427.663 1988.1 428.977 2001.42 428.915L2170.32 428.314C2190.62 428.309 2218.59 429.803 2237.49 429.017C2241.95 428.831 2248.07 428.501 2251.91 426.923C2253.89 426.109 2255.47 424.951 2255.74 423.482C2257.8 412.253 2223.57 380.134 2212.71 369.648C2200.85 358.201 2191.36 345.898 2179.13 334.593C2118 278.069 2040.69 222.41 1950.7 182.645C1939.7 177.784 1928.03 173.21 1915.89 169.5C1903.16 165.609 1836.02 149.438 1831.76 145.935C1831.16 145.439 1830.61 144.918 1830.03 144.41Z"/><path fill="#ECC337" d="M1830.03 144.41C1792.8 137.785 1748.1 135.708 1709.38 132.864C1676.19 130.426 1641.79 131.668 1608.34 132.007C1551.31 132.318 1494.33 134.265 1437.6 137.842C1419.61 139.07 1398.05 143.294 1382 144.582C1351.1 147.065 1322.94 150.714 1292.85 154.459C1270.24 157.272 1205.04 167.734 1184.74 165.85L1183.85 164.674C1206.49 148.833 1389.73 125.588 1433.27 123.316C1548.28 117.315 1670.39 103.711 1786.27 105.392C1844.62 106.239 1913.03 100.317 1967.02 114.717C1951.62 114.641 1921.93 108.357 1909.36 107.791C1875.22 106.256 1753.34 106.703 1727.28 110.954L1729.04 111.377C1741.36 114.283 1744.53 113.906 1757.61 114.169C1743.76 114.54 1710.13 114.659 1698.91 117.726L1697.54 119.597C1702.89 124.799 1724.98 120.801 1726.7 121.573C1738.27 126.761 1736.07 126.308 1749.75 127.968L1748.81 127.937L1748.87 128.801C1743.16 128.959 1739.96 128.997 1734.28 128.769C1735.68 130.888 1735.84 132.424 1739.47 132.931C1754.94 135.09 1820.99 138.053 1830.03 144.41Z"/><path fill="#F9D648" d="M1734.28 128.769L1732.53 127.032C1718.24 120.603 1655.3 125.777 1642.56 116.225L1643.81 114.704C1652.03 111.177 1693.39 112.793 1706.44 111.35C1711.79 110.758 1723.48 109.116 1727.28 110.954L1729.04 111.377C1741.36 114.283 1744.53 113.906 1757.61 114.169C1743.76 114.54 1710.13 114.659 1698.91 117.726L1697.54 119.597C1702.89 124.799 1724.98 120.801 1726.7 121.573C1738.27 126.761 1736.07 126.308 1749.75 127.968L1748.81 127.937L1748.87 128.801C1743.16 128.959 1739.96 128.997 1734.28 128.769Z"/><path fill="#9E772A" d="M1441.3 465.699C1492.42 457.981 1547.95 455.455 1600.18 451.968C1615.22 450.963 1632.11 447.763 1647.25 446.475C1672.71 444.309 1703.34 443.872 1728.27 441.594C1781.3 436.749 1832.58 431.685 1886.44 431.072C1898.89 430.931 1916.8 430.042 1928.81 431.337C1899.77 434.054 1865.02 431.9 1835.35 434.282C1788.26 438.061 1741.55 442.739 1694.23 445.349C1690.27 445.568 1642.9 449.105 1642.75 449.152C1652.9 449.637 1653.97 451.54 1658.05 457.411C1662.47 459.547 1664.89 459.482 1670.41 460.052L1654.88 461.77L1654.84 463.141C1661.09 463.392 1661.71 463.046 1667.77 462.572C1662.7 464.939 1662.83 464.759 1656.83 465.137C1646.18 462.412 1654.91 458.919 1638.29 459.147C1631.55 462.933 1629.8 464.344 1620.63 464.971C1694.3 466.763 1768.11 469.402 1841.66 471.9C1891.7 473.599 1930.87 475.416 1980.84 481.613C2013.16 485.62 2052.46 483.458 2085.03 487.52C2089.14 489.146 2118.57 488.011 2119.31 488.293C2138.65 495.702 2154.26 494.295 2175.88 497.061C2208.31 501.212 2243.7 503.317 2275.97 507.663C2306.92 511.831 2339.57 520.66 2369.87 526.636C2388.49 531.09 2415.13 534.701 2432.45 540.402C2464.71 551.018 2501.81 561.073 2533.38 572.07C2540.64 574.599 2568.41 593.799 2571.55 598.489C2569.58 601.077 2571.17 600.175 2567.25 601.553C2568.14 599.815 2568.01 599.868 2568.36 598.049C2561.62 593.969 2555.89 588.807 2549.25 584.291C2527.89 568.946 2498.93 563.955 2471.42 554.735C2416.87 536.45 2355.23 527.023 2296.94 513.966C2256.5 504.906 2205.7 503.492 2163.26 498.846C2147.4 497.109 2133.44 494.788 2117.93 492.182C2039.63 486.193 1960.86 484.65 1882.79 476.883C1870.28 475.916 1857.31 475.94 1844.81 475.172C1733.05 468.3 1620.64 468.253 1508.46 467.893C1486.06 467.822 1463.82 465.996 1441.3 465.699Z"/><path fill="#F9D648" d="M1642.75 449.152C1652.9 449.637 1653.97 451.54 1658.05 457.411C1662.47 459.547 1664.89 459.482 1670.41 460.052L1654.88 461.77L1654.84 463.141C1661.09 463.392 1661.71 463.046 1667.77 462.572C1662.7 464.939 1662.83 464.759 1656.83 465.137C1646.18 462.412 1654.91 458.919 1638.29 459.147C1631.55 462.933 1629.8 464.344 1620.63 464.971C1607.81 468.272 1493.12 466.313 1474.54 464.009C1495.84 460.644 1522.24 459.104 1544.24 457.901C1569.41 456.526 1621.13 456.591 1642.75 449.152Z"/><path fill="#ECC337" d="M2809.4 987.105C2820.08 992.84 2811.97 996.98 2814.07 1003.65L2816.31 1004C2823.98 998.499 2815.71 1003.45 2818.6 998.004C2819.45 999.774 2820.34 1001.54 2821.27 1003.29C2828.75 1000.27 2820.68 993.647 2829.92 982.856L2830.61 982.058C2829.29 1007.15 2820.88 1034.08 2809.45 1058.06C2806.69 1063.85 2806.53 1070.38 2802.2 1075.92L2800.01 1075.56C2796.3 1066.46 2800.75 1050.5 2803.4 1041.2C2808.58 1023.07 2807.16 1005.25 2809.4 987.105Z"/><path fill="#F9D648" d="M2028.51 1119.26C2052.04 1124.76 2117.7 1116.64 2135.53 1123.9C2138.38 1129.11 2130.11 1147.12 2127.69 1153.41C2115.46 1149.72 2131.61 1136.69 2121.51 1130.36C2104.02 1119.4 2039.53 1135 2025.36 1121.39L2028.51 1119.26Z"/><path d="M2622.57 619.011C2644.08 617.464 2714.47 685.265 2725.44 698.208C2741.79 717.495 2762.44 747.79 2773.48 769.008C2792.56 805.707 2816.64 852.04 2777.04 886.695C2762.65 899.396 2727.89 910.203 2704.01 912.634C2678.68 913.491 2669.75 910.769 2646.03 906.473C2618.07 901.409 2619.64 891.106 2595.66 884.674C2591.3 851 2609.51 850.107 2615.04 821.419C2624.13 774.173 2607.42 725.509 2550.53 691.178C2533.36 680.814 2558.96 658.328 2568.71 649.946C2585.58 635.443 2599.39 628.989 2622.57 619.011Z"/><path d="M2221.75 803.922C2242.56 801.819 2297.59 803.154 2319.35 804.031C2337.15 813.025 2353.15 825.562 2354.48 840.122C2356.18 859.276 2345.32 878.05 2324.34 892.239C2302.08 907.074 2267.83 905.873 2237.8 906.238C2203.54 906.76 2144.98 904.461 2114.62 908.473C2104.65 886.192 2116.02 871.375 2122.06 849.27C2125.48 836.763 2125.22 823.607 2135.01 811.988C2155.74 805.144 2196.83 805.271 2221.75 803.922Z"/><path d="M2284.85 325.808C2292.54 327.183 2307.1 326.58 2314.53 331.374C2329.51 341.033 2347.91 379.083 2332.45 389.816C2313.36 378.085 2269.69 347.093 2274.82 329.968C2278.84 326.659 2277.78 327.656 2284.85 325.808Z"/><path fill="#FDCD03" d="M929.662 677.873C985.903 673.274 1058.3 674.419 1116 673.946C1155.99 673.619 1208.9 672.536 1247.69 673.373C1244.04 698.36 1233.53 723.051 1223.34 747.343C1216.34 764.015 1210.35 802.355 1195.8 815.468C1179.66 820.825 1133.67 815.636 1114.08 817.523C1112.35 817.689 1103.05 817.93 1100.57 818.025L1099.13 819.286C1080.97 835.36 1060.31 861.142 1043.6 878.768C1020.6 903.026 998.327 926.674 976.781 951.443C960.952 969.638 939.691 988.694 923.326 1007.1C899.684 1033.68 875.261 1060.11 852.193 1086.88C843.744 1096.55 833.684 1105.9 825.558 1115.66C794.161 1153.37 760.733 1190.74 725.014 1226.97C717.256 1234.83 695.913 1262.27 681.232 1262.85C653.364 1263.95 612.671 1264.48 586.331 1257.67C577.69 1255.09 571.121 1233.88 569.459 1228.04C562.297 1202.88 562.213 1175.43 557.255 1150.51C550.195 1115.03 541.7 1080.31 534.723 1044.63C524.609 992.904 510.077 940.615 500.9 888.712C497.647 870.318 492.016 847.856 490.612 829.842C490.542 828.95 490.485 828.058 490.44 827.166L478.529 816.137C456.853 816.316 391.113 818.239 375.07 813.874C372.741 810.965 372.976 809.362 373.663 806.167C377.088 790.244 387.212 773.71 393.885 758.109C404.135 734.149 412.22 709.296 425.36 685.873C426.929 683.075 429.735 677.694 434.494 676.481C457.046 670.736 723.382 674.728 762.25 674.839C801.227 674.951 842.477 672.263 881.006 675.137C878.323 693.961 833.615 797.848 819.862 813.252C800.841 814.135 790.892 814.203 772.725 817.849C772.393 827.458 773.08 836.933 774.571 846.495C776.485 858.764 795.993 954.685 803.336 960.04C804.899 961.181 805.155 961.196 806.926 961.93C810.873 961.468 810.768 961.572 813.607 958.709C823.738 948.491 833.133 937.477 842.494 926.986L892.129 871.363C897.446 865.3 902.953 859.335 908.284 853.283C919.806 840.201 937.994 827.403 921.515 812.596C918.023 811.405 917.603 811.167 913.805 810.524C903.429 813.98 881.447 815.05 872.808 810.229C870.839 806.683 877.006 797.551 879.247 793.192C885.421 774.647 895.616 752.613 903.162 733.837C908.788 719.839 920.816 689.906 929.662 677.873Z"/><path fill="#F9D648" d="M879.247 793.192C888.248 800.469 880.615 801.819 887.614 807.728C894.155 806.855 903.52 804.71 908.177 806.221C902.319 807.954 898.664 808.156 892.209 808.922C895.536 809.29 898.715 809.751 901.929 810.397C905.58 809.793 907.516 809.395 911.049 808.561C913.536 810.067 912.775 809.341 913.805 810.524C903.429 813.98 881.447 815.05 872.808 810.229C870.839 806.683 877.006 797.551 879.247 793.192Z"/><path fill="#FDCD03" d="M1328.53 677.931C1349.89 673.987 1453.63 670.965 1474.62 672.711C1518.72 676.378 1747.68 666.708 1775.04 673.663C1783.68 689.025 1738.31 763.19 1734.81 781.363C1723.45 840.344 1649.68 792.193 1617.49 818.794C1611.45 823.786 1595.85 871.004 1591.98 881.082L1562.64 954.173C1557.75 966.252 1550.88 978.388 1545.97 990.53C1540.2 1004.76 1536.29 1019.32 1530.1 1033.47C1520.04 1056.48 1504.48 1089.65 1500.89 1112.87C1508.22 1121.31 1596.16 1117.74 1618.82 1121.21C1618.73 1126.63 1617.42 1139.76 1614.6 1144.44C1599.9 1168.77 1584.6 1245.88 1558.79 1261.41C1537.54 1261.96 1513.89 1261.49 1491.98 1261.79C1419.74 1262.89 1347.49 1263.49 1275.24 1263.61L1185.09 1263.54C1169.46 1263.51 1153.19 1264.06 1137.65 1263.25C1131.9 1262.96 1126.39 1262.53 1121.89 1260.09C1119.64 1258.88 1117.21 1257.42 1117.03 1255.5C1116.31 1248 1167.98 1130.88 1176.27 1120.65C1209.94 1118.97 1241.15 1120.01 1274.59 1118.2C1286.92 1081.16 1300.91 1044.98 1315.05 1008.19C1322.1 989.852 1330.63 966.971 1336.12 948.509C1348.28 907.595 1370.46 866.746 1379.14 825.861C1385.14 797.553 1312.81 822.971 1284.24 810.044C1275.32 806.212 1292.83 769.508 1295.91 761.266C1303.21 735.007 1316.8 703.444 1328.53 677.931Z"/><path fill="#F9D648" d="M1284.24 810.044C1275.32 806.212 1292.83 769.508 1295.91 761.266C1302.19 773.547 1291.1 780.638 1291.65 792.98C1291.97 800.089 1293.74 799.933 1296.56 806.001L1293.3 806.932C1295.56 807.921 1296.93 808.481 1299.35 809.413L1299.49 809.819L1284.24 810.044Z"/><path fill="#FEFEFE" d="M3180.87 1590.91C3208.5 1590.67 3281.94 1587.01 3297.66 1599.42C3358.59 1647.53 3291.76 1735.16 3234.12 1770.9C3183.19 1802.48 3111.38 1799.12 3048.11 1798.34L3042.8 1809.07C3055.62 1827.51 3152.13 1967.42 3150.2 1975.66C3137.81 1977.56 3064.48 1976.82 3047.62 1976.81C3007.86 1926.52 2973.13 1868.6 2936.73 1816.38C2933.47 1812.05 2928.14 1803.65 2922.06 1801.12C2914.91 1798.14 2895.24 1797.84 2886.95 1798.84C2873.18 1804.23 2866.92 1825.96 2861.37 1835.71C2852.27 1851.71 2844.25 1868.44 2836.45 1884.72C2821.27 1915.76 2805.37 1946.67 2788.75 1977.43C2767.66 1978.7 2741.75 1978.97 2720.31 1979.44C2732.21 1947.25 2753.23 1909.62 2769.86 1877.8L2830.63 1758.93C2848.25 1724.6 2866.07 1690.28 2882.9 1655.81C2893.23 1634.66 2903.14 1612.26 2917 1591.95C3003.79 1592.46 3093.88 1591.44 3180.87 1590.91Z"/><path d="M3172.63 1663.75C3195.1 1663.93 3240.45 1657.86 3241.4 1678.38C3242.28 1697.26 3220.52 1714.21 3200.13 1726.91C3172.74 1728.29 3138.21 1727.69 3110.49 1727.64C3072.39 1727.55 3034.3 1727.8 2996.21 1728.38C2973.66 1728.05 2948.83 1729.12 2925.32 1728.99C2924.62 1726.86 2922.56 1720.55 2923.05 1718.74C2927.75 1701.46 2940.44 1680.83 2948.8 1663.75C2974.13 1664.81 3008.23 1664.36 3034.03 1664.38C3080.23 1664.52 3126.44 1664.31 3172.63 1663.75Z"/><path fill="#FEFEFE" d="M1568.14 1595.97C1570.17 1595.6 1573.2 1595.66 1575.49 1595.59C1585.96 1598.79 1583.57 1605.31 1583.43 1612.15C1581.79 1690.23 1579.86 1768.31 1578.22 1846.4L1576.78 1927.93C1576.72 1933.34 1578.5 1978.82 1571.94 1980.98C1567.1 1982.57 1499.75 1983.76 1497.63 1979.02C1489.47 1960.77 1506.91 1882.86 1494.59 1870.1C1481 1865.99 1331.4 1868.38 1304.28 1868.64C1283.18 1888.51 1261.19 1913.05 1239.94 1933.93C1223.41 1949.73 1210.44 1966.57 1192.5 1981.99C1181.77 1981.81 1151.4 1981.6 1142.19 1982.02C1137.76 1983.81 1134.99 1985.49 1129.91 1985.26C1125.11 1984 1125.08 1984.25 1122.32 1981.61C1122.73 1973.84 1180.51 1921.28 1191.76 1910L1409.25 1690.47L1469.96 1628.24C1478.72 1619.45 1491.28 1605.99 1501.67 1598.31C1518.58 1595.95 1549.9 1596.19 1568.14 1595.97Z"/><path d="M1494.85 1683.05C1503.29 1685.94 1503.41 1698.02 1502.7 1703.5C1499.3 1729.84 1508.19 1770 1495.52 1794.31C1488.91 1797.38 1407.62 1796.23 1394.36 1795.72C1391.12 1795.27 1389.31 1794.84 1386.16 1794.18L1384.82 1792.19C1388.64 1780.92 1478.98 1696.5 1494.85 1683.05Z"/><path fill="#FEFEFE" d="M2613.57 1592.49C2626.58 1592.01 2683.57 1591.14 2692.82 1595.47C2694.62 1603.5 2692.98 1623.05 2692.75 1632.26L2690.76 1711.92L2687.12 1879.54C2686.7 1908.13 2687.41 1937.25 2686.6 1965.86C2686.49 1969.76 2685.39 1976.04 2680.45 1978.72C2673.38 1979.95 2660.98 1978.63 2652.32 1978.85C2603.77 1980.08 2606.14 1982.68 2607.18 1953.37L2609.32 1902.86C2609.76 1893.58 2613.09 1872.41 2605.19 1865.41C2591.86 1861.77 2440.14 1864.6 2416.39 1864.79C2404.9 1874.76 2391.31 1891.07 2380.58 1902.3C2358.92 1922.19 2322.15 1964.64 2300.37 1979.71C2276.52 1979.55 2253.63 1980.61 2229.77 1979.62C2237.1 1967.57 2285.06 1922.47 2299.26 1908.35L2451.78 1755.73L2555.01 1650.67C2566.32 1639.01 2601.82 1601.52 2613.57 1592.49Z"/><path d="M2604.57 1679.08C2619.48 1684.77 2609.97 1707.65 2612.65 1718.05C2613.08 1719.71 2613.05 1735.81 2612.71 1737.36C2610.66 1746.61 2615.09 1782.18 2611.08 1789.12C2595.24 1794.64 2535.31 1792.99 2514.08 1792.97C2509.94 1793 2508.07 1792.74 2504 1792.34C2500.85 1790.74 2499.7 1790.16 2499.22 1787.45C2497.8 1779.47 2589.32 1691.83 2604.57 1679.08Z"/><path fill="#FEFEFE" d="M853.04 1598.45C877.944 1598.66 903.883 1598.33 928.867 1598.22C931.12 1613.52 929.708 1638.71 929.485 1654.44L927.584 1755.29L925.32 1898.1C925.098 1913.88 927.521 1971.7 919.534 1983C911.566 1985.67 862.15 1984.34 850.683 1983.89C847.404 1982.01 846.684 1980.7 845.958 1977.96C843.808 1969.85 845.541 1960.42 845.866 1952.19C846.717 1930.61 850.849 1899.51 847.516 1878.63C847.196 1876.63 846.472 1873.88 843.612 1872.67C827.55 1865.89 679.418 1869.39 654.749 1871.66C644.064 1879.11 623.95 1901.05 613.583 1911.07C598.293 1926.4 554.646 1974.49 537.411 1985.44C519.244 1986.62 486.432 1985.49 466.142 1985.39C481.992 1964.51 526.019 1924.61 546.918 1904.01L691.283 1759.76C720.208 1730.95 748.763 1700.57 778.3 1671.89C797.98 1652.79 830.993 1614.39 853.04 1598.45Z"/><path d="M843.028 1684.06C844.186 1684.53 845.519 1684.99 846.411 1685.68C855.144 1692.43 849.031 1782.02 848.299 1797.19C821.777 1798.91 770.102 1798.43 742.917 1798.25C740.421 1798.16 738.773 1798.2 736.619 1797.31C735.3 1796.76 735.22 1796.76 735.063 1795.77C733.692 1787.06 827.85 1694.95 843.028 1684.06Z"/><path fill="#FEFEFE" d="M2333.38 1592.97L2390.26 1592.25C2388.96 1609.91 2373.18 1628.09 2364.27 1644.77C2360.22 1652.36 2357.71 1658.63 2353.16 1666.29C2333.5 1666.81 2307.18 1666.35 2287.02 1666.36L2156.05 1666.48C2129.2 1666.51 2099.01 1665 2072.57 1667.89C2061.73 1669.07 2052.39 1671.8 2043.26 1675.49C1975.58 1702.83 1922.63 1760.11 1906.55 1808.41C1897.93 1834.3 1896.41 1870.3 1921.75 1893.14C1927.01 1897.87 1935.58 1904.01 1944.69 1905.96C1966.3 1910.56 2136.59 1908.13 2171.93 1908.08C2186.75 1908.06 2205.7 1906.3 2220 1908.19C2221.98 1908.45 2223.53 1908.51 2224.37 1909.78C2230.46 1918.97 2200.32 1964.96 2193.73 1976.69L2190.67 1978.95C2168.54 1982.95 2074.71 1979.06 2045.9 1980.24C2002.85 1979.43 1952.47 1982.68 1910.23 1978.31C1843.95 1971.46 1820.72 1913.25 1821.67 1880.13C1824.17 1793.04 1886.78 1706.82 1984.06 1644.33C2022.38 1619.72 2073.9 1598.03 2129.91 1594.27C2150.37 1593.1 2183.39 1593.58 2204.6 1593.55L2333.38 1592.97Z"/><path fill="#FEFEFE" d="M1371.63 1596.82C1385.59 1597.21 1397.87 1596.75 1411.63 1596.69C1424.41 1597.47 1450.26 1593.75 1435.92 1606.5C1397.23 1640.9 1361.22 1677.27 1325.44 1712.87L1180.93 1858.35L1114.48 1926.14C1098.14 1943.1 1074.94 1969.09 1054.2 1983.88C1039.41 1983.7 988.83 1984.69 979.146 1983.5C972.99 1975.1 977.741 1895.49 978.086 1880.83L981.491 1724.96L982.774 1653.71C982.891 1643.32 981.862 1608.15 985.627 1600.23C995.573 1596.57 1038 1598.36 1052.33 1597.38C1060.93 1596.79 1062.86 1601 1063 1607.87C1063.53 1634.93 1061.42 1644.2 1060.97 1673.68C1059.85 1747.78 1057.19 1823.98 1056.25 1898.21C1056.97 1898.73 1057.7 1899.25 1058.43 1899.77C1071.36 1899.21 1091.69 1874.22 1098.67 1867.19C1117.85 1847.92 1136.79 1828.57 1155.49 1809.12C1180 1783.93 1358.52 1601.55 1371.63 1596.82Z"/><path fill="#FEFEFE" d="M187.05 1600.74C197.883 1600.35 242.6 1599.19 249.907 1602.12C247.724 1617.33 230.238 1643.09 222.524 1658.93C195.175 1715.09 162.28 1772.39 140.431 1829.3C130.884 1854.16 143.731 1901.52 185.656 1913.53C213.192 1921.42 449.209 1911.33 462.648 1916.82C464.873 1924.82 438.999 1969.01 432.628 1978.43C430.579 1980.55 428.888 1981.96 426.578 1983.95C412.574 1988.74 209.318 1986.03 178.585 1986.75C82.6664 1988.99 55.9066 1921.74 59.3113 1873.96C60.3542 1856.92 64.2092 1840 70.8167 1823.45C87.6416 1780.52 114.596 1735.83 134.961 1693.19C141.127 1680.28 177.679 1606.05 187.05 1600.74Z"/><path fill="#FDCD03" d="M2845.66 763.836C2857.13 768.633 2865.84 774.584 2875.05 780.873C2972.54 838.84 3011.08 960.735 3015.06 1041.5C3018.1 1103.06 2995.01 1183.83 2964.5 1241.13C2931.69 1302.77 2857.07 1383.3 2738.19 1381.19C2712.31 1380.74 2641.48 1375.76 2640.75 1353.96C2649.27 1342.39 2691.98 1346.83 2711.51 1344.96C2818.05 1334.79 2869.33 1275.09 2906.66 1219.36C2913.4 1208.91 2915.52 1196.39 2921.09 1185.95C2945.14 1140.82 2945.73 1098.01 2948.83 1051.55C2955.23 955.863 2930.73 881.721 2870.33 792.965C2862.87 782.484 2852.99 774.414 2845.66 763.836Z"/><path fill="#F9D648" d="M2845.66 763.836C2857.13 768.633 2865.84 774.584 2875.05 780.873L2870.92 781.841C2869.65 789.03 2876.49 783.023 2870.33 792.965C2862.87 782.484 2852.99 774.414 2845.66 763.836Z"/><path fill="#FDCD03" d="M1656.7 1394.6L2159.29 1388.77C2188.2 1388.33 2219.01 1386.37 2248.27 1385.61C2328.16 1384.04 2408.09 1383.03 2488.02 1382.59C2521.72 1382.46 2555.3 1382.22 2588.98 1382.87C2613.85 1383.35 2611.15 1409.28 2605.73 1418.97C2604.59 1419.68 2600.83 1421.8 2599.23 1421.81C2588.94 1421.86 2566.69 1421.14 2557.27 1420.99L2398.44 1419.23L1567 1412.65C1477.62 1411.82 1392.96 1412.97 1302.52 1411.38C1287.73 1412.24 1263.11 1411.66 1247.25 1411.58L1148.63 1411.26C1087.9 1411.14 1027.16 1411.78 966.458 1409.67C953.239 1409.21 920.594 1410.66 911.253 1407.6L912.434 1407.84C909.356 1406.56 905.087 1406.47 901.06 1406.04C908.084 1404.27 989.221 1401.54 999.198 1402.28L1444.7 1396.88C1476.06 1396.76 1507.42 1396.39 1538.76 1395.78C1554.59 1395.46 1587.99 1394.3 1602.91 1395.25L1656.7 1394.6Z"/><path fill="#9E772A" d="M1602.91 1395.25L1656.7 1394.6C1673.62 1397.19 1708.86 1395.75 1727.85 1397.96C1733.79 1398.66 1745.62 1397.09 1751.53 1398.16C1747.21 1399.58 1743.61 1399.13 1739.13 1398.15L1730.54 1399.53L1731.77 1400.48L1738.67 1400.71C1732.98 1401.6 1719.94 1402.32 1714.43 1400.81C1710.95 1399.85 1711.72 1398.95 1706.61 1398.37L1705.23 1399.43C1709.07 1403.91 1710.63 1405 1715.9 1409.02L1719.59 1409.41C1722.24 1406.99 1721.18 1408.29 1721.43 1404.94C1727.7 1404.63 1733.73 1408.77 1735.84 1409C1745.09 1409.99 1770.4 1405.99 1778.3 1407C1779.83 1405.27 1779.64 1404.66 1781.64 1404.08L1782.93 1406.14C1776.29 1411.99 1760.12 1409.34 1748.62 1412.4C1777.88 1413.62 1810 1412.76 1839.56 1412.89C2002.79 1413.59 2165.78 1420.42 2329.13 1417.69C2359.01 1417.19 2387.81 1416.86 2417.8 1416.89C2461.59 1416.9 2505.37 1417.24 2549.15 1417.91C2568.45 1418.2 2586.54 1418.86 2605.73 1418.97C2604.59 1419.68 2600.83 1421.8 2599.23 1421.81C2588.94 1421.86 2566.69 1421.14 2557.27 1420.99L2398.44 1419.23L1567 1412.65C1477.62 1411.82 1392.96 1412.97 1302.52 1411.38C1287.73 1412.24 1263.11 1411.66 1247.25 1411.58L1148.63 1411.26C1087.9 1411.14 1027.16 1411.78 966.458 1409.67C953.239 1409.21 920.594 1410.66 911.253 1407.6L912.434 1407.84C909.356 1406.56 905.087 1406.47 901.06 1406.04C908.084 1404.27 989.221 1401.54 999.198 1402.28L1444.7 1396.88C1476.06 1396.76 1507.42 1396.39 1538.76 1395.78C1554.59 1395.46 1587.99 1394.3 1602.91 1395.25Z"/><path fill="#F9D648" d="M1602.91 1395.25L1656.7 1394.6C1673.62 1397.19 1708.86 1395.75 1727.85 1397.96C1733.79 1398.66 1745.62 1397.09 1751.53 1398.16C1747.21 1399.58 1743.61 1399.13 1739.13 1398.15L1730.54 1399.53L1731.77 1400.48L1738.67 1400.71C1732.98 1401.6 1719.94 1402.32 1714.43 1400.81C1710.95 1399.85 1711.72 1398.95 1706.61 1398.37L1705.23 1399.43C1709.07 1403.91 1710.63 1405 1715.9 1409.02L1719.59 1409.41C1722.24 1406.99 1721.18 1408.29 1721.43 1404.94C1727.7 1404.63 1733.73 1408.77 1735.84 1409C1745.09 1409.99 1770.4 1405.99 1778.3 1407C1779.83 1405.27 1779.64 1404.66 1781.64 1404.08L1782.93 1406.14C1776.29 1411.99 1760.12 1409.34 1748.62 1412.4C1745.67 1412.69 1721.41 1411.67 1715.75 1411.63L1593.42 1410.49L1228.46 1407.93C1209.45 1407.78 1117.74 1408.03 1107.07 1406.43L1106.53 1405.07C1119.75 1400.31 1124.23 1404.69 1134.04 1403.94C1142.36 1403.3 1149.84 1402.11 1159.84 1401.7C1212.83 1399.56 1267.77 1401.58 1320.33 1400.85C1365.52 1400.23 1391.43 1399 1438.03 1401.35L1438.62 1399.62C1442.79 1397.73 1495.65 1398.52 1505 1398.08C1514.1 1397.66 1526.55 1397.59 1532.85 1401.95L1535.23 1402.01C1535.36 1399.31 1534.84 1400.24 1537.14 1397.99C1546.84 1395.74 1585.04 1396.96 1600.2 1396.42L1602.91 1395.25Z"/><path fill="#37260C" d="M1302.52 1411.38C1287.73 1412.24 1263.11 1411.66 1247.25 1411.58L1148.63 1411.26C1087.9 1411.14 1027.16 1411.78 966.458 1409.67C953.239 1409.21 920.594 1410.66 911.253 1407.6L912.434 1407.84C909.356 1406.56 905.087 1406.47 901.06 1406.04C908.084 1404.27 989.221 1401.54 999.198 1402.28C994.865 1402.98 967.146 1405.14 962.885 1405.12C971.311 1408.2 983.78 1404.39 995.949 1407.72C1002.16 1409.42 1036.71 1409.57 1044.93 1409.67C1102.97 1410.38 1161.75 1409.74 1219.74 1410.16C1239.11 1410.3 1285.22 1409.77 1302.52 1411.38Z"/><path fill="#FDCD03" d="M2394.16 1213.68C2441.62 1207.91 2489.42 1201.46 2536.5 1194.22C2559.46 1190.69 2590.93 1188.72 2613.21 1183.07C2665.72 1169.77 2726.22 1159.1 2772.53 1138.65C2787.52 1132.03 2802.69 1119.2 2816.18 1111.12C2820.53 1108.33 2823.01 1097.49 2829.42 1093.34C2833.25 1094.31 2834.14 1095.4 2835.56 1097.73C2850.33 1121.89 2853.25 1189.27 2834.63 1212.16C2825.07 1223.91 2803.67 1232.29 2783.63 1236.03C2758.05 1240.81 2729 1243.04 2702.45 1244.27C2670.88 1245.74 2430.71 1247.43 2418.21 1242.66C2417.54 1242.41 2416.7 1241.87 2416.09 1241.49C2392.96 1243.64 2235.34 1240.33 2224.62 1231.1C2232.75 1226.46 2277.58 1224.39 2289.99 1223.56C2316.65 1221.79 2368.79 1211.71 2394.16 1213.68Z"/><path fill="#ECC337" d="M2416.09 1241.49C2392.96 1243.64 2235.34 1240.33 2224.62 1231.1C2232.75 1226.46 2277.58 1224.39 2289.99 1223.56C2316.65 1221.79 2368.79 1211.71 2394.16 1213.68C2396.02 1214.92 2397.84 1216.18 2399.63 1217.46C2396.16 1218.65 2338.19 1222.98 2331.91 1223.07C2340.52 1226.38 2356.7 1222.56 2363.38 1224.82C2356.61 1228.76 2340.6 1224.23 2337.82 1231.08L2339.78 1232.59C2344.57 1232.51 2344.49 1232.04 2348.99 1230.39C2352.32 1231.45 2353.2 1233.57 2353.7 1233.67C2367.02 1236.39 2382.74 1234.35 2396.42 1235.77C2402.43 1236.39 2406.06 1239.03 2413.52 1239.4L2416.09 1241.49Z"/></svg>